<svg xmlns="http://www.w3.org/2000/svg" viewBox="0 0 360 180" role="img" aria-label="Sportfisher"><g fill="none" stroke="#102f5a" stroke-width="6" stroke-linecap="round" stroke-linejoin="round"><path d="M48 126 L291 126 L329 108 L317 137 L87 137 Q61 137 48 126 Z" fill="#102f5a"/><path d="M126 124 L151 82 L230 82 L268 124 Z" fill="#fff"/><path d="M151 82 L174 58 L222 58 L238 82 Z" fill="#102f5a"/><path d="M183 58V38H215V58M190 38V24H208V38M199 24V12"/><path d="M184 58L156 82M215 58L238 82M177 82V121M226 82V121"/><path d="M187 34L149 9M211 34L249 9"/></g><path d="M160 88H219L246 119H143Z" fill="#2b75ad"/><path d="M170 91H188V112H155Z" fill="#fff"/><path d="M195 91H216L235 112H195Z" fill="#fff"/><path d="M69 126H311L302 133H86Q73 133 69 126Z" fill="#2b75ad"/></svg>